<?xml version="1.0" encoding="iso-8859-1"?>
<!-- Generator: Adobe Illustrator 13.0.0, SVG Export Plug-In . SVG Version: 6.00 Build 14948)  -->
<!DOCTYPE svg PUBLIC "-//W3C//DTD SVG 1.1//EN" "http://www.w3.org/Graphics/SVG/1.1/DTD/svg11.dtd">
<svg version="1.1" xmlns="http://www.w3.org/2000/svg" xmlns:xlink="http://www.w3.org/1999/xlink" x="0px" y="0px" width="960px"
	 height="540px" viewBox="0 0 960 540" style="enable-background:new 0 0 960 540;" xml:space="preserve">
<g id="holder">
	<rect style="opacity:0;fill:#FFFF57;" width="960" height="540"/>
</g>
<g id="seq2BforearmLT">
	<g id="seq2BhandLT">
		<polygon style="opacity:0.5;fill:#2A8C57;" points="361.834,95.5 361.834,95.5 338.5,95.5 338.5,95.5 338.5,64.335 338.5,64.335 
			361.834,64.335 361.834,64.335 		"/>
		<polygon style="opacity:0.5;fill:#2A8C57;" points="349.5,74 349.5,74 336.5,74 336.5,74 336.5,44.5 336.5,44.5 349.5,44.5 
			349.5,44.5 		"/>
		<polygon style="opacity:0.5;fill:#2A8C57;" points="357.666,71.5 357.666,71.5 350.667,71.5 350.667,71.5 350.667,45 350.667,45 
			357.666,45 357.666,45 		"/>
		<polygon style="opacity:0.5;fill:#2A8C57;" points="366.166,83.167 366.166,83.167 359.166,83.167 359.166,83.167 359.166,50.167 
			359.166,50.167 366.166,50.167 366.166,50.167 		"/>
		<polygon style="opacity:0.5;fill:#2A8C57;" points="357,240.5 357,240.5 331,240.5 331,240.5 331,191.335 331,191.335 
			357,191.335 357,191.335 		"/>
		<polygon style="opacity:0.5;fill:#2A8C57;" points="345.334,212.5 345.334,212.5 322,212.5 322,212.5 322,182.688 322,182.688 
			345.334,182.688 345.334,182.688 		"/>
	</g>
	<g id="seq2BfarmLTumrk">
		<polygon style="opacity:0.6;fill:#006F57;" points="292.107,127.253 286.637,127.253 297.933,109.742 303.406,109.742 		"/>
		<polygon style="opacity:0.6;fill:#006F57;" points="301.739,127.253 296.268,127.253 307.564,109.742 313.038,109.742 		"/>
		<polygon style="opacity:0.6;fill:#006F57;" points="311.809,127.253 306.336,127.253 317.634,109.742 323.105,109.742 		"/>
		<polygon style="opacity:0.6;fill:#006F57;" points="321.439,127.253 315.968,127.253 327.264,109.742 332.736,109.742 		"/>
		<polygon style="opacity:0.6;fill:#006F57;" points="294.508,190.593 285.898,190.593 303.676,163.035 312.288,163.035 		"/>
		<polygon style="opacity:0.6;fill:#006F57;" points="309.666,190.593 301.054,190.593 318.833,163.035 327.447,163.035 		"/>
		<polygon style="opacity:0.6;fill:#006F57;" points="325.512,190.593 316.899,190.593 334.68,163.035 343.291,163.035 		"/>
		<polygon style="opacity:0.6;fill:#006F57;" points="340.668,190.593 332.058,190.593 349.835,163.035 358.447,163.035 		"/>
		<polygon style="opacity:0.6;fill:#006F57;" points="274.131,158.59 268.659,158.59 279.955,141.079 285.429,141.079 		"/>
		<polygon style="opacity:0.6;fill:#006F57;" points="283.762,158.59 278.29,158.59 289.588,141.079 295.061,141.079 		"/>
		<polygon style="opacity:0.6;fill:#006F57;" points="293.831,158.59 288.359,158.59 299.656,141.079 305.129,141.079 		"/>
		<polygon style="opacity:0.6;fill:#006F57;" points="303.462,158.59 297.99,158.59 309.287,141.079 314.76,141.079 		"/>
		<polygon style="opacity:0.6;fill:#006F57;" points="301.576,159.279 292.967,159.279 310.744,131.721 319.356,131.721 		"/>
		<polygon style="opacity:0.6;fill:#006F57;" points="316.734,159.279 308.122,159.279 325.901,131.721 334.516,131.721 		"/>
		<polygon style="opacity:0.6;fill:#006F57;" points="332.58,159.279 323.968,159.279 341.748,131.721 350.359,131.721 		"/>
		<polygon style="opacity:0.6;fill:#006F57;" points="347.736,159.279 339.126,159.279 356.903,131.721 365.516,131.721 		"/>
		<polygon style="opacity:0.6;fill:#006F57;" points="336.544,123.234 331.961,123.234 341.422,108.569 346.006,108.569 		"/>
		<polygon style="opacity:0.6;fill:#006F57;" points="344.61,123.234 340.027,123.234 349.489,108.569 354.073,108.569 		"/>
		<polygon style="opacity:0.6;fill:#006F57;" points="353.043,123.234 348.46,123.234 357.922,108.569 362.506,108.569 		"/>
		<polygon style="opacity:0.6;fill:#006F57;" points="361.109,123.234 356.527,123.234 365.987,108.569 370.571,108.569 		"/>
		<polygon style="opacity:0.6;fill:#006F57;" points="334.684,110.941 328.156,110.941 341.634,90.048 348.164,90.048 		"/>
		<polygon style="opacity:0.6;fill:#006F57;" points="346.176,110.941 339.646,110.941 353.125,90.048 359.656,90.048 		"/>
		<polygon style="opacity:0.6;fill:#006F57;" points="358.189,110.941 351.66,110.941 365.14,90.048 371.668,90.048 		"/>
		<polygon style="opacity:0.6;fill:#006F57;" points="369.68,110.941 363.151,110.941 376.629,90.048 383.159,90.048 		"/>
		<polygon style="opacity:0.6;fill:#006F57;" points="408.424,93.134 402.951,93.134 414.248,75.623 419.721,75.623 		"/>
		<polygon style="opacity:0.6;fill:#006F57;" points="418.055,93.134 412.582,93.134 423.88,75.623 429.354,75.623 		"/>
		<polygon style="opacity:0.6;fill:#006F57;" points="428.123,93.134 422.651,93.134 433.949,75.623 439.421,75.623 		"/>
		<polygon style="opacity:0.6;fill:#006F57;" points="437.754,93.134 432.283,93.134 443.579,75.623 449.053,75.623 		"/>
		<polygon style="opacity:0.6;fill:#006F57;" points="387.441,231.723 382.858,231.723 392.319,217.058 396.903,217.058 		"/>
		<polygon style="opacity:0.6;fill:#006F57;" points="395.508,231.723 390.925,231.723 400.387,217.058 404.971,217.058 		"/>
		<polygon style="opacity:0.6;fill:#006F57;" points="403.94,231.723 399.357,231.723 408.819,217.058 413.402,217.058 		"/>
		<polygon style="opacity:0.6;fill:#006F57;" points="412.007,231.723 407.424,231.723 416.885,217.058 421.469,217.058 		"/>
		<polygon style="opacity:0.6;fill:#006F57;" points="423.256,226.103 418.672,226.103 428.133,211.438 432.717,211.438 		"/>
		<polygon style="opacity:0.6;fill:#006F57;" points="431.322,226.103 426.738,226.103 436.2,211.438 440.785,211.438 		"/>
		<polygon style="opacity:0.6;fill:#006F57;" points="439.754,226.103 435.172,226.103 444.633,211.438 449.217,211.438 		"/>
		<polygon style="opacity:0.6;fill:#006F57;" points="447.82,226.103 443.238,226.103 452.699,211.438 457.283,211.438 		"/>
	</g>
</g>
<g id="seq2Bhead">
	<polygon style="opacity:0.5;fill:#2A8C57;" points="607.167,252.25 607.167,252.25 522.75,252.25 522.75,252.25 522.75,206.5 
		522.75,206.5 607.167,206.5 607.167,206.5 	"/>
	<polygon style="opacity:0.5;fill:#2A8C57;" points="597.166,268.834 597.166,268.834 553.833,268.834 553.833,268.834 
		553.833,244.5 553.833,244.5 597.166,244.5 597.166,244.5 	"/>
	<polygon style="opacity:0.5;fill:#2A8C57;" points="636.5,148.834 636.5,148.834 605.833,148.834 605.833,148.834 605.833,105.5 
		605.833,105.5 636.5,105.5 636.5,105.5 	"/>
	<polygon style="opacity:0.5;fill:#2A8C57;" points="611.833,182.834 611.833,182.834 586.5,182.834 586.5,182.834 586.5,146.834 
		586.5,146.834 611.833,146.834 611.833,146.834 	"/>
	<polygon style="opacity:0.5;fill:#2A8C57;" points="591.333,212.334 591.333,212.334 569.166,212.334 569.166,212.334 
		569.166,176.334 569.166,176.334 591.333,176.334 591.333,176.334 	"/>
	<polygon style="opacity:0.5;fill:#2A8C57;" points="638.5,212.334 638.5,212.334 588.666,212.334 588.666,212.334 588.666,160.5 
		588.666,160.5 638.5,160.5 638.5,160.5 	"/>
	<polygon style="opacity:0.5;fill:#2A8C57;" points="659.166,169.667 659.166,169.667 635.166,169.667 635.166,169.667 
		635.166,128.167 635.166,128.167 659.166,128.167 659.166,128.167 	"/>
	<g id="seq2Bheadunmrk">
		<polygon style="opacity:0.6;fill:#006F57;" points="622.756,242.756 617.284,242.756 628.581,225.245 634.054,225.245 		"/>
		<polygon style="opacity:0.6;fill:#006F57;" points="632.388,242.756 626.915,242.756 638.213,225.245 643.686,225.245 		"/>
		<polygon style="opacity:0.6;fill:#006F57;" points="642.456,242.756 636.984,242.756 648.281,225.245 653.754,225.245 		"/>
		<polygon style="opacity:0.6;fill:#006F57;" points="652.087,242.756 646.615,242.756 657.912,225.245 663.385,225.245 		"/>
		<polygon style="opacity:0.6;fill:#006F57;" points="643.377,223.232 639.436,223.232 647.571,210.622 651.514,210.622 		"/>
		<polygon style="opacity:0.6;fill:#006F57;" points="650.313,223.232 646.372,223.232 654.508,210.622 658.45,210.622 		"/>
		<polygon style="opacity:0.6;fill:#006F57;" points="657.564,223.232 653.623,223.232 661.76,210.622 665.701,210.622 		"/>
		<polygon style="opacity:0.6;fill:#006F57;" points="664.5,223.232 660.561,223.232 668.695,210.622 672.637,210.622 		"/>
		<polygon style="opacity:0.6;fill:#006F57;" points="679.348,224.027 670.061,224.027 689.234,194.303 698.526,194.303 		"/>
		<polygon style="opacity:0.6;fill:#006F57;" points="695.697,224.027 686.406,224.027 705.585,194.303 714.873,194.303 		"/>
		<polygon style="opacity:0.6;fill:#006F57;" points="712.787,224.027 703.499,224.027 722.675,194.303 731.963,194.303 		"/>
		<polygon style="opacity:0.6;fill:#006F57;" points="729.135,224.027 719.846,224.027 739.021,194.303 748.312,194.303 		"/>
	</g>
</g>
<g id="seq2barmLT">
	<polygon style="opacity:0.5;fill:#2A8C57;" points="477.5,207.25 477.5,207.25 432.251,207.25 432.251,207.25 432.251,179.586 
		432.251,179.586 477.5,179.586 477.5,179.586 	"/>
	<polygon style="opacity:0.5;fill:#2A8C57;" points="418,196.25 418,196.25 399.251,196.25 399.251,196.25 399.251,182.75 
		399.251,182.75 418,182.75 418,182.75 	"/>
	<polygon style="opacity:0.5;fill:#2A8C57;" points="436,199.5 436,199.5 414.001,199.5 414.001,199.5 414.001,178 414.001,178 
		436,178 436,178 	"/>
	<polygon style="opacity:0.5;fill:#2A8C57;" points="488.957,191.043 488.957,191.043 373.751,191.043 373.751,191.043 373.751,136 
		373.751,136 488.957,136 488.957,136 	"/>
	<polygon style="opacity:0.5;fill:#2A8C57;" points="394.5,214 394.5,214 349.251,214 349.251,214 349.251,172.586 349.251,172.586 
		394.5,172.586 394.5,172.586 	"/>
	<polygon style="opacity:0.5;fill:#2A8C57;" points="394,178.5 394,178.5 348.751,178.5 348.751,178.5 348.751,125.086 
		348.751,125.086 394,125.086 394,125.086 	"/>
	<polygon style="opacity:0.5;fill:#2A8C57;" points="423.5,136.75 423.5,136.75 358.251,136.75 358.251,136.75 358.251,109.086 
		358.251,109.086 423.5,109.086 423.5,109.086 	"/>
	<g id="seq2BarmLTunmrk">
		<polygon style="opacity:0.6;fill:#006F57;" points="408.887,93.256 403.416,93.256 414.712,75.745 420.186,75.745 		"/>
		<polygon style="opacity:0.6;fill:#006F57;" points="418.519,93.256 413.047,93.256 424.344,75.745 429.817,75.745 		"/>
		<polygon style="opacity:0.6;fill:#006F57;" points="428.588,93.256 423.115,93.256 434.413,75.745 439.885,75.745 		"/>
		<polygon style="opacity:0.6;fill:#006F57;" points="438.219,93.256 432.747,93.256 444.043,75.745 449.516,75.745 		"/>
		<polygon style="opacity:0.6;fill:#006F57;" points="432.225,123.054 426.468,123.054 438.353,104.632 444.11,104.632 		"/>
		<polygon style="opacity:0.6;fill:#006F57;" points="442.357,123.054 436.6,123.054 448.486,104.632 454.244,104.632 		"/>
		<polygon style="opacity:0.6;fill:#006F57;" points="452.95,123.054 447.193,123.054 459.079,104.632 464.836,104.632 		"/>
		<polygon style="opacity:0.6;fill:#006F57;" points="463.082,123.054 457.326,123.054 469.21,104.632 474.968,104.632 		"/>
		<polygon style="opacity:0.6;fill:#006F57;" points="370.117,115.133 365.317,115.133 375.227,99.774 380.026,99.774 		"/>
		<polygon style="opacity:0.6;fill:#006F57;" points="378.565,115.133 373.765,115.133 383.674,99.774 388.475,99.774 		"/>
		<polygon style="opacity:0.6;fill:#006F57;" points="387.396,115.133 382.597,115.133 392.506,99.774 397.305,99.774 		"/>
		<polygon style="opacity:0.6;fill:#006F57;" points="395.843,115.133 391.044,115.133 400.952,99.774 405.753,99.774 		"/>
		<polygon style="opacity:0.6;fill:#006F57;" points="482.967,153.777 471.57,153.777 495.098,117.309 506.496,117.309 		"/>
		<polygon style="opacity:0.6;fill:#006F57;" points="503.027,153.777 491.627,153.777 515.155,117.309 526.555,117.309 		"/>
		<polygon style="opacity:0.6;fill:#006F57;" points="523.994,153.777 512.599,153.777 536.125,117.309 547.521,117.309 		"/>
		<polygon style="opacity:0.6;fill:#006F57;" points="544.052,153.777 532.656,153.777 556.181,117.309 567.58,117.309 		"/>
		<polygon style="opacity:0.6;fill:#006F57;" points="406.714,110.08 402.289,110.08 411.425,95.92 415.85,95.92 		"/>
		<polygon style="opacity:0.6;fill:#006F57;" points="414.502,110.08 410.077,110.08 419.213,95.92 423.639,95.92 		"/>
		<polygon style="opacity:0.6;fill:#006F57;" points="422.645,110.08 418.22,110.08 427.355,95.92 431.781,95.92 		"/>
		<polygon style="opacity:0.6;fill:#006F57;" points="430.432,110.08 426.008,110.08 435.144,95.92 439.568,95.92 		"/>
		<polygon style="opacity:0.6;fill:#006F57;" points="409.891,246.411 403.663,246.411 416.518,226.484 422.745,226.484 		"/>
		<polygon style="opacity:0.6;fill:#006F57;" points="420.85,246.411 414.621,246.411 427.479,226.484 433.704,226.484 		"/>
		<polygon style="opacity:0.6;fill:#006F57;" points="432.307,246.411 426.08,246.411 438.935,226.484 445.161,226.484 		"/>
		<polygon style="opacity:0.6;fill:#006F57;" points="443.266,246.411 437.039,246.411 449.894,226.484 456.121,226.484 		"/>
		<polygon style="opacity:0.6;fill:#006F57;" points="368.329,254.146 361.128,254.146 375.991,231.105 383.191,231.105 		"/>
		<polygon style="opacity:0.6;fill:#006F57;" points="381,254.146 373.799,254.146 388.665,231.105 395.863,231.105 		"/>
		<polygon style="opacity:0.6;fill:#006F57;" points="394.248,254.146 387.049,254.146 401.911,231.105 409.111,231.105 		"/>
		<polygon style="opacity:0.6;fill:#006F57;" points="406.919,254.146 399.72,254.146 414.583,231.105 421.784,231.105 		"/>
		<polygon style="opacity:0.6;fill:#006F57;" points="340.878,231.836 332.119,231.836 350.199,203.81 358.958,203.81 		"/>
		<polygon style="opacity:0.6;fill:#006F57;" points="356.293,231.836 347.532,231.836 365.616,203.81 374.372,203.81 		"/>
		<polygon style="opacity:0.6;fill:#006F57;" points="372.407,231.836 363.649,231.836 381.729,203.81 390.486,203.81 		"/>
		<polygon style="opacity:0.6;fill:#006F57;" points="387.821,231.836 379.063,231.836 397.144,203.81 405.903,203.81 		"/>
		<polygon style="opacity:0.6;fill:#006F57;" points="481.467,200.277 470.07,200.277 493.598,163.809 504.996,163.809 		"/>
		<polygon style="opacity:0.6;fill:#006F57;" points="501.527,200.277 490.127,200.277 513.655,163.809 525.055,163.809 		"/>
		<polygon style="opacity:0.6;fill:#006F57;" points="522.494,200.277 511.099,200.277 534.625,163.809 546.021,163.809 		"/>
		<polygon style="opacity:0.6;fill:#006F57;" points="542.552,200.277 531.156,200.277 554.681,163.809 566.08,163.809 		"/>
		<polygon style="opacity:0.6;fill:#006F57;" points="427.62,223.165 423.196,223.165 432.331,209.005 436.757,209.005 		"/>
		<polygon style="opacity:0.6;fill:#006F57;" points="435.409,223.165 430.983,223.165 440.12,209.005 444.546,209.005 		"/>
		<polygon style="opacity:0.6;fill:#006F57;" points="443.551,223.165 439.126,223.165 448.263,209.005 452.688,209.005 		"/>
		<polygon style="opacity:0.6;fill:#006F57;" points="451.339,223.165 446.915,223.165 456.05,209.005 460.476,209.005 		"/>
		<polygon style="opacity:0.6;fill:#006F57;" points="389.469,230.39 385.044,230.39 394.18,216.229 398.604,216.229 		"/>
		<polygon style="opacity:0.6;fill:#006F57;" points="397.257,230.39 392.832,230.39 401.968,216.229 406.394,216.229 		"/>
		<polygon style="opacity:0.6;fill:#006F57;" points="405.398,230.39 400.975,230.39 410.11,216.229 414.535,216.229 		"/>
		<polygon style="opacity:0.6;fill:#006F57;" points="413.187,230.39 408.763,230.39 417.898,216.229 422.323,216.229 		"/>
	</g>
</g>
<g id="seq2Bbody">
	<polygon style="opacity:0.5;fill:#2A8C57;" points="558,298.5 558,298.5 467.5,298.5 467.5,298.5 467.5,233.834 467.5,233.834 
		558,233.834 558,233.834 	"/>
	<polygon style="opacity:0.5;fill:#2A8C57;" points="527.5,246.834 527.5,246.834 492,246.834 492,246.834 492,206.5 492,206.5 
		527.5,206.5 527.5,206.5 	"/>
	<polygon style="opacity:0.5;fill:#2A8C57;" points="546.833,216 546.833,216 509.5,216 509.5,216 509.5,192.834 509.5,192.834 
		546.833,192.834 546.833,192.834 	"/>
	<polygon style="opacity:0.5;fill:#2A8C57;" points="574,208 574,208 521.5,208 521.5,208 521.5,174.5 521.5,174.5 574,174.5 
		574,174.5 	"/>
	<g id="seq2Bbodyunmrk">
		<polygon style="opacity:0.6;fill:#006F57;" points="538.721,158.194 534.752,158.194 542.944,145.494 546.914,145.494 		"/>
		<polygon style="opacity:0.6;fill:#006F57;" points="545.705,158.194 541.736,158.194 549.93,145.494 553.9,145.494 		"/>
		<polygon style="opacity:0.6;fill:#006F57;" points="553.008,158.194 549.039,158.194 557.232,145.494 561.201,145.494 		"/>
		<polygon style="opacity:0.6;fill:#006F57;" points="559.992,158.194 556.025,158.194 564.217,145.494 568.188,145.494 		"/>
		<polygon style="opacity:0.6;fill:#006F57;" points="517.447,162.431 513.479,162.431 521.671,149.731 525.641,149.731 		"/>
		<polygon style="opacity:0.6;fill:#006F57;" points="524.432,162.431 520.463,162.431 528.656,149.731 532.627,149.731 		"/>
		<polygon style="opacity:0.6;fill:#006F57;" points="531.734,162.431 527.766,162.431 535.959,149.731 539.928,149.731 		"/>
		<polygon style="opacity:0.6;fill:#006F57;" points="538.719,162.431 534.752,162.431 542.943,149.731 546.914,149.731 		"/>
		<polygon style="opacity:0.6;fill:#006F57;" points="503.326,183.908 496.563,183.908 510.527,162.259 517.295,162.259 		"/>
		<polygon style="opacity:0.6;fill:#006F57;" points="515.234,183.908 508.469,183.908 522.437,162.259 529.205,162.259 		"/>
		<polygon style="opacity:0.6;fill:#006F57;" points="527.684,183.908 520.918,183.908 534.885,162.259 541.652,162.259 		"/>
		<polygon style="opacity:0.6;fill:#006F57;" points="539.59,183.908 532.826,183.908 546.791,162.259 553.559,162.259 		"/>
		<polygon style="opacity:0.6;fill:#006F57;" points="563.77,170.737 559.403,170.737 568.419,156.762 572.787,156.762 		"/>
		<polygon style="opacity:0.6;fill:#006F57;" points="571.457,170.737 567.09,170.737 576.107,156.762 580.477,156.762 		"/>
		<polygon style="opacity:0.6;fill:#006F57;" points="579.494,170.737 575.126,170.737 584.144,156.762 588.512,156.762 		"/>
		<polygon style="opacity:0.6;fill:#006F57;" points="587.181,170.737 582.814,170.737 591.83,156.762 596.199,156.762 		"/>
		<polygon style="opacity:0.6;fill:#006F57;" points="560.367,194.635 553.242,194.635 567.953,171.827 575.083,171.827 		"/>
		<polygon style="opacity:0.6;fill:#006F57;" points="572.913,194.635 565.785,194.635 580.5,171.827 587.63,171.827 		"/>
		<polygon style="opacity:0.6;fill:#006F57;" points="586.027,194.635 578.899,194.635 593.614,171.827 600.742,171.827 		"/>
		<polygon style="opacity:0.6;fill:#006F57;" points="598.57,194.635 591.445,194.635 606.156,171.827 613.287,171.827 		"/>
		<polygon style="opacity:0.6;fill:#006F57;" points="547.787,280.406 543.678,280.406 552.164,267.249 556.276,267.249 		"/>
		<polygon style="opacity:0.6;fill:#006F57;" points="555.025,280.406 550.912,280.406 559.402,267.249 563.514,267.249 		"/>
		<polygon style="opacity:0.6;fill:#006F57;" points="562.59,280.406 558.479,280.406 566.967,267.249 571.078,267.249 		"/>
		<polygon style="opacity:0.6;fill:#006F57;" points="569.825,280.406 565.715,280.406 574.201,267.249 578.314,267.249 		"/>
		<polygon style="opacity:0.6;fill:#006F57;" points="547.652,293.689 541.465,293.689 554.241,273.883 560.433,273.883 		"/>
		<polygon style="opacity:0.6;fill:#006F57;" points="558.549,293.689 552.357,293.689 565.137,273.883 571.329,273.883 		"/>
		<polygon style="opacity:0.6;fill:#006F57;" points="569.938,293.689 563.747,293.689 576.527,273.883 582.717,273.883 		"/>
		<polygon style="opacity:0.6;fill:#006F57;" points="580.83,293.689 574.643,293.689 587.419,273.883 593.611,273.883 		"/>
	</g>
</g>
<g id="seq2BthighRT">
	<polygon style="opacity:0.5;fill:#2A8C57;" points="546,327 546,327 466.5,327 466.5,327 466.5,293.586 466.5,293.586 546,293.586 
		546,293.586 	"/>
</g>
<g id="seq2BlegRT">
	<polygon style="opacity:0.5;fill:#2A8C57;" points="505,402.5 505,402.5 407.167,402.5 407.167,402.5 407.167,331 407.167,331 
		505,331 505,331 	"/>
	<polygon style="opacity:0.5;fill:#2A8C57;" points="494.5,338 494.5,338 461.5,338 461.5,338 461.5,320.5 461.5,320.5 494.5,320.5 
		494.5,320.5 	"/>
	<g id="seq2BfootRT">
		<polygon style="opacity:0.5;fill:#2A8C57;" points="418.5,398.5 418.5,398.5 388.667,398.5 388.667,398.5 388.667,377.333 
			388.667,377.333 418.5,377.333 418.5,377.333 		"/>
		<polygon style="opacity:0.5;fill:#2A8C57;" points="369.5,448 369.5,448 339.667,448 339.667,448 339.667,416.5 339.667,416.5 
			369.5,416.5 369.5,416.5 		"/>
		<polygon style="opacity:0.5;fill:#2A8C57;" points="413,434 413,434 354.167,434 354.167,434 354.167,382 354.167,382 413,382 
			413,382 		"/>
	</g>
</g>
<g id="seq2BthighLT">
	<polygon style="opacity:0.5;fill:#2A8C57;" points="456,280.5 456,280.5 346.002,280.5 346.002,280.5 346.002,218 346.002,218 
		456,218 456,218 	"/>
	<polygon style="opacity:0.5;fill:#2A8C57;" points="451.5,260.5 451.5,260.5 421.5,260.5 421.5,260.5 421.5,239.586 421.5,239.586 
		451.5,239.586 451.5,239.586 	"/>
	<polygon style="opacity:0.5;fill:#2A8C57;" points="467.5,250.5 467.5,250.5 442.5,250.5 442.5,250.5 442.5,229.5 442.5,229.5 
		467.5,229.5 467.5,229.5 	"/>
	<polygon style="opacity:0.5;fill:#2A8C57;" points="492,235 492,235 463.5,235 463.5,235 463.5,218 463.5,218 492,218 492,218 	"/>
</g>
<g id="seq2BlegLT">
	<polygon style="opacity:0.5;fill:#2A8C57;" points="357.167,360.5 357.167,360.5 275.834,360.5 275.834,360.5 275.834,243.5 
		275.834,243.5 357.167,243.5 357.167,243.5 	"/>
	<polygon style="opacity:0.5;fill:#2A8C57;" points="325.167,249.5 325.167,249.5 300.5,249.5 300.5,249.5 300.5,230.167 
		300.5,230.167 325.167,230.167 325.167,230.167 	"/>
	<g id="seq2BfootLT">
		<polygon style="opacity:0.5;fill:#2A8C57;" points="257.594,382.539 257.594,382.539 234.261,382.539 234.261,382.539 
			234.261,361.5 234.261,361.5 257.594,361.5 257.594,361.5 		"/>
		<polygon style="opacity:0.5;fill:#2A8C57;" points="310.5,387.833 310.5,387.833 287.167,387.833 287.167,387.833 
			287.167,351.669 287.167,351.669 310.5,351.669 310.5,351.669 		"/>
		<polygon style="opacity:0.5;fill:#2A8C57;" points="292.166,386.333 292.166,386.333 248.667,386.333 248.667,386.333 
			248.667,355.833 248.667,355.833 292.166,355.833 292.166,355.833 		"/>
		<polygon style="opacity:0.5;fill:#2A8C57;" points="307.666,409.5 307.666,409.5 255.5,409.5 255.5,409.5 255.5,381.166 
			255.5,381.166 307.666,381.166 307.666,381.166 		"/>
	</g>
</g>
<g id="seq2BforearmRT">
	<polygon style="opacity:0.5;fill:#2A8C57;" points="565.5,362.834 565.5,362.834 506,362.834 506,362.834 506,329.5 506,329.5 
		565.5,329.5 565.5,329.5 	"/>
</g>
<g id="seq2BarmRT">
	<polygon style="opacity:0.5;fill:#2A8C57;" points="612,352.334 612,352.334 549.5,352.334 549.5,352.334 549.5,316.334 
		549.5,316.334 612,316.334 612,316.334 	"/>
	<polygon style="opacity:0.5;fill:#2A8C57;" points="622.5,326.334 622.5,326.334 562.5,326.334 562.5,326.334 562.5,290.334 
		562.5,290.334 622.5,290.334 622.5,290.334 	"/>
	<polygon style="opacity:0.5;fill:#2A8C57;" points="600.333,292.5 600.333,292.5 570,292.5 570,292.5 570,274.334 570,274.334 
		600.333,274.334 600.333,274.334 	"/>
	<polygon style="opacity:0.5;fill:#2A8C57;" points="627.583,294.417 627.583,294.417 599,294.417 599,294.417 599,253.334 
		599,253.334 627.583,253.334 627.583,253.334 	"/>
</g>
</svg>
